<?xml version="1.0" encoding="utf-8"?>
<!-- Generator: Adobe Illustrator 24.0.0, SVG Export Plug-In . SVG Version: 6.00 Build 0)  -->
<svg version="1.1" id="Layer_1" xmlns="http://www.w3.org/2000/svg" xmlns:xlink="http://www.w3.org/1999/xlink" x="0px" y="0px"
	 viewBox="0 0 595.28 841.89" style="enable-background:new 0 0 595.28 841.89;" xml:space="preserve">
<style type="text/css">
	.st0{fill:#050505;}
	.st1{fill:#040404;}
	.st2{fill:#050606;}
	.st3{fill:#040505;}
	.st4{fill:#060707;}
	.st5{fill:#060606;}
	.st6{fill:#090908;}
	.st7{fill:#080908;}
	.st8{fill:#070707;}
	.st9{fill:#0B0B0B;}
	.st10{fill:#0D0E0D;}
	.st11{fill:#0A0A0A;}
	.st12{fill:#13120F;}
	.st13{fill:#14110F;}
	.st14{fill:#141714;}
	.st15{fill:#26192B;}
	.st16{fill:#583015;}
	.st17{fill:#2E392E;}
	.st18{fill:#0D111E;}
	.st19{fill:#151123;}
	.st20{fill:#0E1E26;}
	.st21{fill:#0C161E;}
	.st22{fill:#15142B;}
	.st23{fill:#0E1022;}
	.st24{fill:#1E2A2C;}
	.st25{fill:#FFFFFF;}
	.st26{fill:#F5F6F6;}
	.st27{fill:#101120;}
	.st28{fill:#FEFEFE;}
	.st29{fill:#74728E;}
	.st30{fill:#0B1D2A;}
</style>
<g>
	<path class="st0" d="M232.38,461.02c0.95-0.16,1.7-0.86,2.67-0.97c0.43-0.05,0.41-0.5,0.38-0.71c-0.26-1.66-0.12-3.36-0.7-4.99
		c-0.24-0.68-0.74-0.99-1.21-1.37c-0.39-0.31-0.79-0.63-0.5-1.17c0.28-0.51,0.75-0.38,1.21-0.22c1.44,0.5,1.83,1.75,1.94,3.03
		c0.11,1.35,0.56,2.69,0.25,4.07c-0.07,0.32,0.21,0.43,0.43,0.54c0.5,0.26,0.47,0.56,0.02,0.79c-0.24,0.12-0.4,0.23-0.36,0.49
		c0.16,1.06-0.16,2.09-0.15,3.14c0.01,0.85,0.23,1.44,0.98,2.01c1.4,1.05,2.96,1.83,4.41,2.79c0.21,0.14,0.45,0.2,0.72,0.2
		c0.35,0,0.64,0.04,0.82,0.49c0.22,0.55,1.43,0.74,1.95,0.4c0.23-0.15,0.43-0.32,0.76-0.26c0.54,0.1,0.63,0.41,0.37,0.8
		c-0.44,0.67-1.08,1.13-1.77,1.53c-0.17,0.1-0.31,0.03-0.48,0.03c-1.45-0.02-2.48-0.86-3.52-1.71c-1.28-1.05-2.77-1.85-3.83-3.17
		c-0.05-0.06-0.18-0.1-0.27-0.09c-0.18,0.01-0.17,0.17-0.16,0.29c0.12,1.14-0.06,2.32,0.38,3.43c0.12,0.3-0.24,0.67,0.07,0.97
		c-0.65,0.61-0.19,1.34-0.22,2.02c-0.02,0.54-0.2,0.88-0.75,0.95c-0.56,0.07-0.6-0.36-0.63-0.74c-0.06-0.91-0.14-1.8-0.01-2.73
		c0.17-1.22,0.06-2.49,0.08-3.74c0.01-0.88,0.06-1.76,0.05-2.65c0-0.21,0.12-0.58-0.29-0.57c-0.39,0-0.19,0.33-0.24,0.52
		c-0.27,0.93-0.66,1.82-0.97,2.72c-0.38,1.09-1.02,1.96-1.72,2.78c-0.43,0.5-0.57,1.39-1.5,1.42c-0.24,0.01-0.42,0.11-0.57-0.16
		c-0.14-0.24-0.12-0.38,0.03-0.66c0.33-0.61,1-0.85,1.35-1.42c0.22-0.37,0.28-0.59-0.2-0.6c-0.44-0.01-0.69-0.28-0.81-0.59
		c-0.24-0.6-0.74-0.88-1.2-1.24c-0.33-0.25-0.59-0.27-0.55,0.25c0.17,2.05-0.35,4.06-0.31,6.1c0.01,0.55-0.28,0.95-0.69,0.92
		c-0.24-0.02-0.7-0.37-0.63-1.03c0.16-1.4,0.74-2.72,0.77-4.11c0.03-1.12,0.33-2.27-0.04-3.39c-0.06-0.17,0.04-0.44-0.28-0.46
		c-0.28-0.02-0.23,0.23-0.31,0.36c-0.44,0.82-1.13,1.44-1.7,2.15c-0.77,0.98-1.73,1.77-2.72,2.52c-0.12,0.09-0.28,0.13-0.38,0.24
		c-0.28,0.31-0.54,0.1-0.68-0.09c-0.17-0.24-0.01-0.52,0.21-0.66c1.27-0.76,2.32-1.83,3.13-2.98c0.93-1.32,1.92-2.65,2.51-4.2
		c0.08-0.22,0.15-0.52-0.03-0.65c-0.16-0.12-0.38,0.05-0.57,0.21c-0.78,0.66-1.72,0.76-2.68,0.59c-0.41-0.07-0.91-0.94-0.79-1.35
		c0.11-0.36,0.33-0.57,0.74-0.32c1.36,0.83,2.46,0.02,3.59-0.56c0.11-0.06,0.24-0.09,0.21-0.27c-0.25-1.42-0.04-2.84-0.11-4.26
		c-0.03-0.73,0.01-1.46-0.84-1.87c-0.32-0.15-0.39-0.67-0.18-0.96c0.25-0.35,0.7-0.38,1.09-0.18c0.75,0.37,0.95,1.09,0.98,1.83
		c0.04,0.91,0.07,1.84-0.01,2.75c-0.06,0.66,0.29,1.31-0.09,1.99c-0.17,0.31,0.19,0.44,0.46,0.27c0.49-0.31,1.08-0.24,1.58-0.5
		c0.37-0.19,0.68-0.02,0.8,0.34c0.12,0.35,0.08,0.75-0.34,0.9c-0.35,0.13-0.71,0.23-1.11,0.23c-1.03,0.02-1.23,0.28-1.23,1.33
		c0,0.82-0.05,1.63-0.12,2.45c-0.03,0.33,0.07,0.54,0.37,0.66c0.65,0.27,1.19,0.76,1.89,0.96c0.52,0.14,0.66,0.66,0.93,1.04
		c0.22,0.31,0.37,0.39,0.59,0.01c0.61-1.08,0.94-2.26,1.22-3.45c0.15-0.64,0.24-1.29,1.16-1.12c0.39,0.07,0.22-0.25,0.22-0.39
		c0-0.28-0.01-0.62-0.43-0.55c-0.32,0.05-0.62,0.19-0.94,0.29c-0.25,0.01-0.46-0.15-0.76-0.09
		C232.73,461.75,232.49,461.42,232.38,461.02z"/>
	<path class="st1" d="M337.33,469.71c0.15,0.91-0.07,2.15,0.62,3.25c0.36,0.56-0.15,0.83-0.5,1.08c-0.49,0.35-0.96,0.04-1.18-0.32
		c-0.4-0.64-1-1.06-1.48-1.6c-0.27-0.3-0.47-0.56-0.26-0.92c0.2-0.34,0.53-0.44,0.93-0.34c0.83,0.21,0.73,0.2,0.78-0.67
		c0.07-1.37-0.03-2.76,0.34-4.12c0.06-0.21,0.02-0.46,0.04-0.68c0.04-0.37-0.14-0.36-0.41-0.28c-1.48,0.46-2.93,0.95-3.91,2.27
		c-0.24,0.32-0.57,0.52-0.91,0.26c-0.32-0.24-0.55-0.67-0.36-1.05c0.93-1.83,0.88-3.81,0.9-5.77c0.01-1.11,0.69-1.77,1.52-2.2
		c0.94-0.49,1.74-1.13,2.48-1.84c0.33-0.32,0.64-0.77-0.21-0.92c-0.39-0.07-0.63-0.42-0.56-0.79c0.07-0.37,0.32-0.75,0.75-0.76
		c0.63-0.01,1.28,0,1.9,0.13c0.97,0.21,1.19,0.83,0.7,1.67c-0.35,0.6-0.94,1-1.44,1.43c-0.92,0.81-2,1.44-3.01,2.15
		c-0.6,0.42-0.91,0.9-0.79,1.72c0.11,0.76-0.02,1.57-0.13,2.35c-0.11,0.82-0.14,0.77,0.64,0.63c0.92-0.16,1.63-0.85,2.59-0.87
		c0.24-0.01,0.3-0.2,0.25-0.39c-0.15-0.59-0.12-1.28-0.86-1.56c-0.4-0.15-0.68-0.41-0.47-0.88c0.21-0.46,0.54-0.74,1.09-0.61
		c0.92,0.22,1.44,0.8,1.5,1.8c0.03,0.49,0.04,0.77,0.68,0.81c0.45,0.03,0.93,0.19,1.39,0.25c0.47,0.06,0.64,0.35,0.76,0.74
		c0.12,0.4-0.12,0.56-0.41,0.78c-0.32,0.24-0.7,0.36-0.98,0.68c-0.28,0.32-0.54-0.02-0.78-0.19c-0.26-0.18-0.42-0.24-0.53,0.17
		C337.65,466.54,337.46,467.98,337.33,469.71z"/>
	<path class="st2" d="M254.51,461.76c0.85-0.38,1.67-0.86,2.66-0.52c0.23,0.08,0.35-0.09,0.43-0.31c0.19-0.54,0.29-1.12,0.72-1.56
		c0.11-0.12,0.09-0.36-0.03-0.5c-0.14-0.17-0.32-0.14-0.55-0.11c-1.29,0.15-2.53,0.59-3.84,0.62c-0.38,0.01-0.74,0.02-1.13-0.02
		c-0.49-0.05-0.86-0.23-0.78-0.69c0.08-0.48,0.59-0.84,1.04-0.7c1.39,0.44,2.68-0.2,4.02-0.27c0.24-0.01,0.5-0.08,0.75-0.07
		c1.23,0.02,1.23,0.02,1.64-1.32c0.2-0.67-0.09-1.59-0.74-1.89c-0.81-0.38-1.7-0.28-2.53-0.04c-0.88,0.25-1.76,0.52-2.31,1.41
		c-0.13,0.21-0.76,0.07-1.03-0.28c-0.38-0.48-0.01-0.96,0.3-1.09c0.93-0.39,1.69-1.15,2.75-1.24c1.12-0.09,2.2-0.47,3.38-0.05
		c1.55,0.56,1.76,0.77,1.87,2.46c0.07,1.11-0.5,1.96-0.95,2.86c-0.44,0.87-0.78,1.77-1.1,2.7c-0.12,0.36-0.34,0.94-1,0.94
		c-0.43,0-0.74,0.55-1.25,0.37c0.21,0.51-0.39,0.82-0.31,1.33c0.07,0.46,0.17,0.94-0.02,1.41c-0.09,0.22-0.33,0.53,0.06,0.63
		c0.26,0.07,0.81-0.04,0.82-0.14c0.07-0.44,0.46-0.52,0.7-0.75c0.39-0.37,0.7-0.68,0.37-1.29c-0.14-0.26-0.1-0.8,0.23-0.91
		c0.43-0.15,0.94-0.16,1.22,0.43c0.4,0.86-0.14,2.22-1.2,2.72c-0.71,0.34-1.29,1.03-2.22,0.8c-0.21-0.05-0.24,0.2-0.32,0.36
		c-0.67,1.24-1.37,2.47-1.8,3.82c-0.28,0.88-1.18,1.23-1.58,2.01c-0.13,0.25-1.82,0.08-1.98-0.13c-0.23-0.28-0.15-0.45,0.16-0.57
		c0.35-0.13,0.71-0.26,1.05-0.43c0.75-0.37,1.23-0.92,1.62-1.71c0.82-1.65,1.29-3.41,1.86-5.13c0.21-0.62-0.05-1.21-0.16-1.79
		c-0.1-0.51-0.6-0.3-0.83-0.19c-0.81,0.39-1.69,0.39-2.54,0.56c-0.33,0.07-0.63,0.21-0.69-0.36c-0.06-0.55,0.28-0.9,0.64-0.8
		c0.6,0.16,1.03-0.13,1.53-0.25C253.78,461.89,254.18,461.96,254.51,461.76z"/>
	<path class="st1" d="M294.36,458.96c0.52,0.35,1.04,0.63,1.69,0.78c0.64,0.15,0.5,0.85,0.41,1.3c-0.14,0.67-0.07,1.33-0.13,1.98
		c-0.04,0.49,0.14,0.62,0.61,0.58c0.58-0.05,1.18-0.01,1.73,0.18c0.64,0.22,0.76-0.17,0.75-0.58c-0.01-1.38,0.14-2.75,0.24-4.12
		c0.03-0.46,0.06-0.92,0.19-1.34c0.14-0.46-0.13-0.73-0.38-0.87c-1.21-0.66-2.47-0.64-3.6,0.15c-0.55,0.39-0.75-0.06-0.93-0.28
		c-0.24-0.29-0.11-0.57,0.31-0.73c1.29-0.51,2.58-0.98,3.99-0.85c0.76,0.07,1.25,0.62,1.82,1.14c0.9,0.81,0.36,1.5,0.32,2.31
		c-0.05,1-0.33,1.95-0.46,2.92c-0.24,1.9,0.06,3.73,0.36,5.57c0.14,0.89-0.29,1.68-0.21,2.55c0.04,0.41-0.39,0.73-0.71,0.93
		c-0.25,0.16-0.65,0.23-0.9-0.22c-0.4-0.73-1.07-1-1.91-0.95c-0.39,0.02-0.79-0.11-1.19-0.15c-0.51-0.05-1.01-0.12-1.36,0.47
		c-0.2,0.34-0.57,0.19-0.89,0.05c-0.39-0.18-0.27-0.51-0.23-0.78c0.21-1.34,0.56-2.65,0.92-3.95c0.36-1.29,0.02-2.63,0.22-3.94
		c0.05-0.34-0.37-0.39-0.58-0.52c-0.33-0.2-0.68-0.34-0.7-0.79C293.85,459.43,293.71,458.89,294.36,458.96z"/>
	<path class="st1" d="M320.93,462.68c0.57,0,1.03,0,1.49,0c0.43-0.01,0.93,0.02,0.83,0.59c-0.07,0.38-0.42,0.79-0.89,0.78
		c-0.77-0.02-1.52-0.01-2.28,0.14c-0.69,0.14-1.3,0.54-2.03,0.56c-0.14,0.01-0.33,0.13-0.35,0.35c-0.11,1.16-0.88,2.04-1.31,3.06
		c-0.44,1.05-1.38,1.66-1.82,2.65c-0.08,0.17-0.28,0.3-0.45,0.4c-0.18,0.1-0.39,0.1-0.57-0.06c-0.2-0.19-0.01-0.31,0.06-0.46
		c0.32-0.68,0.83-1.23,1.29-1.81c0.72-0.91,1.34-1.85,1.62-3c0.13-0.56-0.09-0.62-0.5-0.37c-0.61,0.38-1.35,0.32-2,0.64
		c-0.41,0.21-0.99,0.09-1.37-0.38c-0.2-0.26-0.26-0.53-0.06-0.76c0.22-0.25,0.51-0.65,0.87-0.43c0.46,0.28,0.81,0.12,1.22-0.02
		c0.64-0.22,1.29-0.43,1.93-0.64c0.54-0.18,0.83-0.5,0.68-1.12c-0.06-0.24-0.06-0.5,0.05-0.75c0.09-0.22,0.12-0.45-0.09-0.63
		c-0.24-0.2-0.42-0.01-0.62,0.1c-0.46,0.28-0.91,0.38-1.5,0.25c-0.57-0.13-0.54-0.39-0.52-0.79c0.03-0.49,0.37-0.63,0.74-0.53
		c0.81,0.2,1.46-0.36,2.2-0.41c0.14-0.01,0.16-0.12,0.16-0.22c-0.02-1.51,0.45-3,0.17-4.53c-0.15-0.82-0.62-1.42-1.15-2.01
		c-0.4-0.45-0.28-0.91,0.06-1.3c0.32-0.36,0.72-0.27,1.12-0.08c0.25,0.12,0.24,0.37,0.38,0.55c0.89,1.12,1.15,2.39,0.98,3.81
		c-0.12,0.98-0.22,1.96-0.35,2.94c-0.03,0.25,0.1,0.38,0.35,0.39c0.2,0,0.41-0.02,0.61-0.01c1.48,0.04,1.99,0.9,1.35,2.24
		C321.14,462.07,321.06,462.33,320.93,462.68z"/>
	<path class="st2" d="M283.76,460.39c-0.21,0.6-0.25,1.08-1.15,0.94c-1.19-0.18-1.66,0.58-1.63,2.19c0.02,1.17,0.03,1.17,1.19,1.15
		c0.81-0.02,1.17,0.46,0.94,1.22c-0.05,0.18-0.18,0.16-0.29,0.15c-0.5-0.05-1.02,0.14-1.49-0.18c-0.3-0.2-0.51-0.01-0.5,0.29
		c0.04,0.82-0.4,1.52-0.49,2.3c-0.03,0.3-0.25,0.54-0.47,0.63c-0.26,0.1-0.48-0.12-0.67-0.36c-0.2-0.27-0.24-0.43-0.01-0.71
		c0.46-0.53,0.15-1.24,0.38-1.84c0.09-0.23-0.15-0.27-0.34-0.29c-1.19-0.1-2.25,0.22-3.17,0.99c-0.15,0.12-0.25,0.32-0.52,0.2
		c-0.39-0.17-0.42-0.54-0.52-0.87c-0.1-0.34,0.25-0.2,0.37-0.3c1.2-1.01,2.67-1.1,4.13-1.22c0.26-0.02,0.36-0.14,0.36-0.39
		c0-0.59-0.01-1.17,0.01-1.76c0.02-0.58-0.36-0.69-0.72-0.47c-0.89,0.54-1.89,0.73-2.84,1.09c-0.44,0.16-0.71,0.44-0.93,0.91
		c-0.32,0.7-0.82,1.32-1.26,1.96c-0.19,0.27-0.51,0.29-0.75,0.15c-0.26-0.15-0.07-0.41-0.01-0.62c0.36-1.2,1.03-2.26,1.66-3.32
		c0.92-1.55,1.49-3.19,1.47-5.01c0-0.39-0.15-0.7-0.53-0.85c-0.2-0.08-0.39-0.18-0.4-0.41c-0.01-0.32-0.19-0.77,0.11-0.93
		c0.27-0.15,0.68-0.11,1.02,0.1c1.23,0.75,1.53,1.52,1.08,3.33c-0.21,0.84-0.56,1.65-0.81,2.49c-0.14,0.48-0.13,0.74,0.58,0.57
		c0.67-0.16,1.3-0.44,1.96-0.6c0.61-0.15,0.37-0.74,0.39-1.14c0.06-1.31-0.31-2.6-0.07-3.92c0.13-0.73,0.64-0.77,1.17-0.84
		c0.3-0.04,0.3,0.17,0.21,0.34c-0.53,1.08-0.27,2.22-0.23,3.33c0.02,0.42,0.15,0.86,0.02,1.27c-0.13,0.45,0.08,0.55,0.4,0.4
		C282.22,460.01,282.96,460.28,283.76,460.39z"/>
	<path class="st0" d="M295.53,486.78c1.16-0.03,1.96,0.61,2.64,1.42c1.17,1.4,1.5,3.06,1.05,4.78c-0.33,1.25-1.07,2.34-2,3.28
		c-0.05,0.05-0.11,0.12-0.17,0.15c-0.2,0.11-0.63-0.15-0.57,0.36c0.05,0.43,0.33,0.64,0.71,0.78c0.9,0.32,1.85,0.48,2.64,1.1
		c0.45,0.35,0.31,0.66,0.21,1.06c-0.11,0.44-0.35,0.33-0.67,0.31c-1.78-0.13-3.3-0.84-4.61-2.01c-0.26-0.23-0.62-0.32-0.9-0.29
		c-0.62,0.06-1.05-0.35-1.57-0.53c-0.35-0.12-0.47-0.54-0.39-0.91c0.09-0.43,0.49-0.57,0.82-0.55c0.63,0.05,1.32,0.01,1.85,0.43
		c0.37,0.29,0.78,0.18,0.98-0.02c0.72-0.72,1.55-1.29,2.06-2.28c0.65-1.27,0.6-2.44,0.18-3.67c-0.36-1.07-1.26-1.67-2.21-2.16
		c-0.33-0.17-1.45,0.63-1.56,1.12c-0.11,0.5-0.32,0.88-0.86,0.65c-0.51-0.22-0.69-0.73-0.31-1.19
		C293.57,487.76,294.23,486.79,295.53,486.78z"/>
	<path class="st3" d="M318.04,491.93c-0.18,1.29-0.78,2.36-1.67,3.31c-0.46,0.49-0.93,0.98-1.5,1.33c-0.55,0.35-0.23,0.59,0.07,0.74
		c0.44,0.23,0.92,0.4,1.4,0.53c0.73,0.2,1.48,0.29,2.14,0.7c0.24,0.15,0.51,0.1,0.74,0.02c0.44-0.15,0.96-0.13,1.03,0.31
		c0.06,0.4-0.14,0.96-0.68,1.13c-0.85,0.27-1.72,0.25-2.54-0.09c-1.43-0.6-2.92-1.07-4.27-1.86c-0.29-0.17-0.65-0.11-0.97,0.01
		c-0.3,0.11-0.61,0.09-0.91,0.07c-0.54-0.03-0.84-0.41-0.94-0.87c-0.1-0.51,0.36-0.78,0.72-0.86c0.41-0.1,0.85-0.23,1.31-0.12
		c1.08,0.23,1.99-0.07,2.73-0.92c0.35-0.4,0.8-0.72,1.13-1.14c1.09-1.4,1.19-3.22-0.46-4.38c-0.35-0.25-0.66-0.55-1.07-0.71
		c-0.2-0.08-0.66-0.03-0.5-0.38c0.13-0.31,0.18-0.81,0.79-0.77c0.64,0.04,1.15,0.33,1.56,0.72
		C317.07,489.58,318.19,490.39,318.04,491.93z"/>
	<path class="st4" d="M310.18,493.14c-0.16,0.72-0.37,1.64-1.12,2.42c-0.65,0.67-1.17,1.45-2,1.93c-0.41,0.24-0.79,0.52-1.21,0.73
		c-0.83,0.41-1.61,0.42-2.41-0.2c-1.16-0.9-1.6-1.95-1.49-3.46c0.13-1.72,1.06-2.74,2.29-3.71c0.56-0.44,1.09-0.89,1.74-1.23
		c1.27-0.66,2.12-0.58,3.06,0.5C309.74,490.91,310.2,491.79,310.18,493.14z"/>
	<path class="st5" d="M323.73,495.18c0.26-1.14,0.28-2.36,1.22-3.26c0.18-0.17,0.35-0.4,0.4-0.63c0.39-1.8,3.4-1.76,4.47-0.46
		c0.98,1.19,1.04,2.5,0.81,3.93c-0.07,0.44-0.51,0.35-0.66,0.71c-0.39,0.97-1.29,1.55-2.06,2.19c-0.63,0.53-1.5,0.76-2.37,0.63
		c-0.95-0.14-1.48-0.8-1.64-1.66C323.81,496.17,323.62,495.68,323.73,495.18z"/>
	<path class="st4" d="M311.25,462.69c-0.37,1.93-0.09,3.89-0.19,5.84c-0.05,0.95-0.59,1.91-0.15,2.95c0.13,0.31,0,1.04-0.33,1.46
		c-0.21,0.26-0.59,0.68-0.88,0.42c-0.29-0.27-0.59-0.78-0.3-1.26c0.48-0.77,0.5-1.66,0.6-2.5c0.37-3.15,0.16-6.33,0.42-9.49
		c0.13-1.56-0.12-3.15-0.28-4.72c-0.04-0.44-0.22-0.97-0.84-1.05c-0.42-0.05-0.42-0.42-0.46-0.69c-0.05-0.37,0.27-0.62,0.52-0.76
		c0.22-0.12,0.54-0.07,0.85,0.08c1.34,0.66,1.3,1.89,1.35,3.08c0.04,0.99,0.04,1.99-0.03,2.98c-0.03,0.54,0.21,0.74,0.66,0.84
		c0.29,0.07,0.61,0.1,0.88,0.22c0.42,0.19,0.63,0.62,0.46,1.01c-0.17,0.37-0.46,0.84-1.05,0.58c-0.07-0.03-0.13-0.07-0.2-0.1
		c-0.9-0.29-1.05-0.17-1.04,0.8C311.25,462.49,311.25,462.59,311.25,462.69z"/>
	<path class="st1" d="M326.44,473.71c-0.79,0.26-1.32-0.38-2-0.95c-1.19-1.01-2.54-1.83-3.81-2.74c-0.26-0.19-0.44-0.48-0.68-0.7
		c-0.41-0.36-0.78-0.79-1.32-0.96c-0.29-0.1-0.41-0.39-0.53-0.63c-0.18-0.36-0.34-0.82,0.03-1.12c0.35-0.28,0.71-0.04,1.03,0.2
		c1.7,1.27,3.38,2.57,5.22,3.62c0.82,0.46,1.65,1.04,2.68,1.1c0.36,0.02,0.69,0.05,1.04-0.06c0.31-0.09,0.68-0.11,0.86,0.28
		c0.15,0.31-0.08,0.51-0.21,0.78C328.32,473.44,327.57,473.71,326.44,473.71z"/>
	<path class="st6" d="M273.72,470.64c1.27-0.32,2.59-0.36,3.88-0.58c0.82-0.14,1.65-0.21,2.47-0.4c0.82-0.19,1.68-0.1,2.52-0.19
		c1.2-0.12,2.43,0.02,3.64-0.03c0.93-0.04,1.83,0.19,2.75,0.17c0.49-0.01,0.83,0.42,0.87,0.9c0.04,0.41-0.93,0.83-1.42,0.75
		c-1.8-0.3-3.56-0.91-5.4-0.88c-0.88,0.01-1.76,0.2-2.64,0.29c-1.58,0.15-3.11,0.59-4.68,0.77c-1.21,0.14-2.47,0.04-3.63,0.57
		c-0.31,0.14-0.57-0.05-0.62-0.38c-0.06-0.38,0.03-0.73,0.49-0.81c0.22-0.04,0.46-0.03,0.68-0.05
		C272.98,470.68,273.4,471.04,273.72,470.64z"/>
	<path class="st0" d="M263.28,475.09c-0.44,0.15-0.81-0.12-0.98-0.45c-0.5-0.98-1.55-1.23-2.31-1.84c-1.18-0.95-2.48-1.76-3.71-2.65
		c-0.24-0.17-0.44-0.41-0.53-0.72c-0.08-0.27-0.19-0.48,0.11-0.73c0.27-0.23,0.47-0.2,0.75-0.07c0.97,0.45,1.67,1.29,2.63,1.76
		c0.78,0.38,1.57,0.76,2.33,1.19c0.7,0.4,1.43,0.76,2.13,1.15c0.47,0.26,0.81,0.33,1.24,0.09c0.28-0.16,0.56-0.28,0.83,0.02
		c0.25,0.28,0.15,0.58-0.01,0.85C265.18,474.58,264.43,475.16,263.28,475.09z"/>
	<path class="st7" d="M344.89,489.49c-0.2,1.2-0.45,2.3-0.63,3.4c-0.14,0.87-0.29,1.77-0.35,2.67c-0.1,1.38,0,2.75-0.06,4.12
		c-0.03,0.66-0.57,0.68-0.97,0.73c-0.36,0.05-0.44-0.33-0.58-0.65c-0.43-0.97,0.34-1.71,0.39-2.59c0.15-3.01,1.23-5.92,0.88-8.98
		c-0.03-0.27-0.08-0.61,0.35-0.61c0.33,0,0.67,0,0.78,0.44C344.83,488.53,344.65,489.09,344.89,489.49z"/>
	<path class="st8" d="M353.39,465.52c-0.02-0.33-0.04-0.66,0.12-0.97c0.34-0.64,0.09-1.33-0.01-1.93c-0.21-1.24,0.15-2.48-0.11-3.71
		c-0.05-0.24,0.04-0.53-0.04-0.76c-0.15-0.46-0.15-0.92,0.31-1.11c0.45-0.19,1.09,0.47,1.11,1.05c0.08,2.03,0.26,4.06,0.14,6.09
		c-0.06,0.98,0.1,2-0.35,2.95c-0.17,0.35-0.47,0.62-0.73,0.57c-0.37-0.07-0.58-0.45-0.53-0.89
		C353.35,466.37,353.36,465.94,353.39,465.52z"/>
	<path class="st0" d="M345.3,474.19c-0.19-0.04-0.37,0.06-0.52-0.1c-0.65-0.69-1.48-1.15-2.22-1.73c-0.33-0.26-0.84-0.6-0.03-0.97
		c0.21-0.1,0.08-0.37,0.07-0.57c-0.02-0.56,0.25-0.8,0.75-0.53c0.94,0.52,1.87,1.06,2.77,1.65c0.48,0.31,0.78,0.72,0.5,1.4
		C346.35,474.01,345.86,474.12,345.3,474.19z"/>
	<path class="st9" d="M307.5,461.57c0.62-0.01,1.04,0.67,0.71,1.24c-0.19,0.32-0.16,0.62-0.21,0.94c-0.13,0.93-0.41,1.81-0.88,2.62
		c-0.18,0.3-0.38,0.37-0.58,0.08c-0.26-0.4-0.84-0.56-0.39-1.39c0.42-0.77,0.85-1.72,0.75-2.74
		C306.85,461.74,307.05,461.58,307.5,461.57z"/>
	<path class="st10" d="M330.93,472.5c-0.37,0.08-0.64-0.19-0.7-0.44c-0.08-0.36,0.03-0.78,0.39-1c0.95-0.57,1.63-1.43,2.39-2.2
		c0.11-0.11,0.21-0.23,0.34-0.3c0.28-0.16,0.52-0.38,0.85,0.02c0.3,0.36,0.14,0.74-0.05,0.87c-0.64,0.42-1,1.05-1.46,1.6
		c-0.26,0.31-0.53,0.62-0.97,0.7c-0.26,0.05-0.37,0.27-0.39,0.51C331.3,472.52,331.14,472.52,330.93,472.5z"/>
	<path class="st11" d="M253.94,468.43c-0.04,0.36-0.29,0.69-0.68,0.82c-0.37,0.12-0.74-0.08-0.89-0.41
		c-0.37-0.8-0.83-1.47-1.62-1.94c-0.26-0.15-0.66-0.56-0.3-0.96c0.31-0.34,0.77-0.39,1.17-0.07c0.58,0.48,1.17,0.95,1.72,1.48
		C253.66,467.67,254.13,467.8,253.94,468.43z"/>
	<path class="st12" d="M332.62,497.44c0.15-0.45,0.16-1.05,0.82-1.11c0.58-0.05,0.84,0.45,0.84,0.89c0,0.5-0.15,1.08-0.91,1.02
		C332.86,498.21,332.7,497.9,332.62,497.44z"/>
	<path class="st13" d="M353.66,470.66c0.4,0,1.02,0.64,0.9,1.06c-0.09,0.32-0.33,0.7-0.72,0.77c-0.4,0.07-1.05-0.71-1.06-1.2
		C352.77,470.77,352.94,470.65,353.66,470.66z"/>
	<path class="st14" d="M232.38,461.02c0.36,0.19,0.56,0.81,1.16,0.31c0.23-0.19,0.23,0.29,0.38,0.42c-0.57,0.27-1.16,0.51-1.77,0.69
		c-0.4,0.12-0.68,0.02-0.83-0.28c-0.16-0.35-0.01-0.69,0.36-0.87C231.9,461.19,232.14,461.11,232.38,461.02z"/>
	<path class="st15" d="M273.72,470.64c-0.1,0.07-0.22,0.12-0.3,0.21c-0.13,0.17,0.15,0.59-0.29,0.56c-0.52-0.04,0.12-0.37-0.09-0.49
		c-0.13-0.07-0.28-0.09-0.42-0.13C272.96,470.55,273.36,470.75,273.72,470.64z"/>
	<path class="st16" d="M294.36,458.96c-0.57-0.02-0.21,0.7-0.64,0.81c-0.22-0.23-0.24-0.45,0.01-0.68
		C293.91,458.92,294.07,458.62,294.36,458.96z"/>
	<path class="st17" d="M254.51,461.76c-0.27,0.42-0.71,0.24-1.08,0.29C253.76,461.83,254.13,461.78,254.51,461.76z"/>
	<path class="st18" d="M238.36,466.98c0.29,0.17,0.72,0.1,0.76,0.55c0.03,0.26-0.12,0.38-0.37,0.35c-0.36-0.05-0.6-0.26-0.66-0.63
		C238.05,467.04,238.21,467,238.36,466.98z"/>
	<path class="st19" d="M224.46,461.97c0.3-0.3,0.58-0.19,0.82,0.02c0.19,0.17,0.03,0.29-0.33,0.14
		C224.78,462.07,224.58,462.25,224.46,461.97z"/>
	<path class="st20" d="M232.24,468.35c0.08,0.04,0.18,0.06,0.2,0.1c0.04,0.11-0.04,0.18-0.15,0.18c-0.05,0-0.13-0.06-0.15-0.11
		C232.13,468.48,232.2,468.42,232.24,468.35z"/>
	<path class="st21" d="M253.51,458.66c0.36-0.05,0.67,0.17,1.02,0.18C254.16,458.95,253.78,459.1,253.51,458.66z"/>
	<path class="st22" d="M255.47,453.84c0.29-0.31,0.52-0.29,0.74-0.11c0.03,0.03,0.03,0.16,0,0.2
		C255.96,454.18,255.76,453.97,255.47,453.84z"/>
	<path class="st23" d="M257.96,458.07c0.04,0.02,0.14,0.05,0.16,0.09c0.04,0.13-0.07,0.17-0.17,0.18c-0.09,0.01-0.22,0.03-0.23-0.1
		C257.71,458.13,257.83,458.09,257.96,458.07z"/>
	<path class="st24" d="M257.73,453.45c0.07,0.08,0.13,0.13,0.14,0.19c0.01,0.05-0.05,0.1-0.08,0.16c-0.05-0.05-0.12-0.08-0.14-0.14
		C257.63,453.61,257.69,453.55,257.73,453.45z"/>
	<path class="st25" d="M296.79,465.22c0.42-0.08,0.87-0.13,1.32-0.11c1.21,0.04,1.9,0.8,1.77,2c-0.07,0.62-0.24,1.03-1.06,0.98
		c-0.92-0.06-1.88-0.22-2.78,0.24c-0.24,0.12-0.39-0.01-0.35-0.29c0.12-0.78,0.11-1.59,0.36-2.35
		C296.16,465.33,296.23,464.95,296.79,465.22z"/>
	<path class="st26" d="M318.3,463.03c0.28-0.69,0.15-1.29,0.46-1.86c0.27-0.51,0.62-0.42,0.94-0.29c0.44,0.18,0.27,0.53,0.05,0.81
		C319.36,462.16,319.14,462.79,318.3,463.03z"/>
	<path class="st27" d="M280.57,460.06c-0.6-0.51-0.02-1.12-0.41-1.65C280.62,458.64,280.62,458.64,280.57,460.06z"/>
	<path class="st25" d="M303.23,494.54c0.24-1.16,0.78-2.42,2.15-3.13c0.6-0.31,1.09-0.8,1.92-0.72c0.81,0.08,0.92,0.74,1.15,1.15
		c0.74,1.29,0.42,2.43-0.75,3.41c-0.5,0.42-1.05,0.77-1.51,1.22c-0.58,0.58-1.26,0.62-1.96,0.42
		C303.71,496.74,303.21,495.6,303.23,494.54z"/>
	<path class="st28" d="M324.91,494.92c0.24-0.61,0.07-1.4,0.9-1.73c0.26-0.1,0.5-0.32,0.41-0.72c-0.16-0.73,0.43-0.99,0.93-1.04
		c1.55-0.15,2.61,1.35,2.15,2.6c-0.56,1.54-1.65,2.17-3.01,2.64c-0.39,0.13-0.7-0.09-0.85-0.35
		C325.2,495.89,325.09,495.4,324.91,494.92z"/>
	<path class="st29" d="M283.22,469.84c-0.06,0.07-0.09,0.15-0.14,0.17c-0.05,0.02-0.16-0.01-0.19-0.06
		c-0.06-0.11,0.01-0.2,0.12-0.21C283.07,469.73,283.14,469.79,283.22,469.84z"/>
	<path class="st30" d="M256.44,469.29c0.28-0.01,0.54-0.07,0.58,0.25c0.01,0.08-0.15,0.25-0.24,0.25
		C256.45,469.78,256.66,469.43,256.44,469.29z"/>
</g>
</svg>
